<svg width="244" height="38" viewBox="0 0 244 38" fill="none" xmlns="http://www.w3.org/2000/svg">
    <g clip-path="url(#clip0_1021_27504)">
        <path d="M4.202 26.457L20.78 29.64L22.068 27.417L7.332 21.05L4.202 26.457ZM11.882 13.19L24.777 22.744L26.065 20.52L15.013 7.782L11.883 13.19H11.882ZM8.03 19.848L22.766 26.217L24.079 23.945L11.184 14.392L8.03 19.848ZM19.227 0.5L15.747 6.52L26.8 19.26L28.438 16.436L19.227 0.5ZM0 33.727H18.42L20.057 30.903L3.48 27.72L0 33.727ZM29.231 26.289L33.541 33.727H38.441L29.231 17.805L20.021 33.727H24.921L29.231 26.289Z"
              fill="white"/>
        <path d="M68.4307 33.7029H75.4507L77.0637 30.8549H68.4317L68.4307 33.7029ZM68.4307 25.7949V28.6429H78.3407L79.9897 25.7949H68.4307ZM217.215 29.1719V20.7599H214.108V33.7029H216.709L224.185 25.2309V33.7029H227.291V20.7599H224.547L217.215 29.1719ZM86.6957 20.7599L79.2557 33.7029H82.9157L87.8157 25.1579L92.7517 33.7029H96.6047L89.1647 20.7599H86.6957ZM64.3397 30.8539L56.8997 17.8999H54.3597L46.9187 30.8539H45.0527V37.4999H48.0137V33.7019H63.2437V37.4999H66.2057V30.8539H64.3397ZM50.6267 30.8539L55.5267 22.2979L60.4627 30.8539H50.6267ZM165.878 20.7599H151.419V23.6079H164.216L165.878 20.7599ZM82.8787 20.7599H68.4317V23.6079H81.2297L82.8787 20.7599ZM241.256 20.7599L233.924 29.1719V20.7599H230.818V33.7029H233.43L240.895 25.2309V33.7029H244.001V20.7599H241.256ZM207.474 25.7949H200.672V20.7599H197.565V33.7029H200.672V28.6429H207.474V33.7029H210.58V20.7599H207.474V25.7949ZM169.683 20.7599L162.243 33.7029H165.915L170.815 25.1579L175.751 33.7029H179.592L172.151 20.7599H169.683ZM138.982 25.3999H134.263V20.7489H131.157V33.7029H138.958C141.065 33.7029 143.256 32.5379 143.256 29.4849C143.244 25.4719 140.427 25.3999 138.982 25.3999ZM138.802 30.9639H134.251V28.0799H138.802C139.331 28.0799 140.138 28.2239 140.138 29.5219C140.138 30.7229 139.476 30.9639 138.802 30.9639ZM147.904 20.7599H144.834V33.7149H147.904V20.7599ZM104.431 20.4469C99.2407 20.4469 96.7857 23.6199 96.7857 27.1649C96.7857 30.8659 99.1807 33.8819 104.431 33.8819C106.718 33.8819 112.015 32.8249 112.015 27.1649C112.015 23.4639 109.644 20.4469 104.431 20.4469ZM104.395 31.0339C101.397 31.0339 100.133 29.3159 100.133 27.2009C100.133 24.8809 101.577 23.3309 104.395 23.3309C107.573 23.3309 108.656 24.8809 108.656 27.2009C108.656 29.9769 106.574 31.0339 104.395 31.0339ZM151.419 33.7029H158.438L160.063 30.8549H151.419V33.7029ZM151.419 25.7949V28.6429H161.327L162.988 25.7949H151.419ZM183.962 29.0999V20.7599H180.856V33.7029H183.469L190.945 25.3029V33.7029H194.051V20.7599H191.439L183.962 29.0999ZM125.571 26.0719C126.389 25.7229 127.088 25.1589 127.088 23.7519C127.088 21.0719 124.836 20.7599 123.247 20.7599H114.856V33.7149H123.392C127.304 33.7149 128.111 31.5639 128.111 29.5929C128.123 27.3699 126.859 26.4559 125.571 26.0719ZM117.926 23.4999H122.898C123.644 23.4999 123.957 23.8849 123.957 24.6299C123.957 25.3989 123.464 25.7949 122.898 25.7949H117.926V23.4999ZM123.392 30.9629H117.926V28.1869H123.392C124.27 28.1869 124.909 28.4029 124.909 29.5569C124.909 30.4699 124.523 30.9629 123.392 30.9629Z"
              fill="white"/>
    </g>
    <defs>
        <clipPath id="clip0_1021_27504">
            <rect width="244" height="37" fill="white" transform="translate(0 0.5)"/>
        </clipPath>
    </defs>
</svg>
